<?xml version="1.0" encoding="UTF-8"?>
<svg xmlns="http://www.w3.org/2000/svg" xmlns:xlink="http://www.w3.org/1999/xlink" role="img"
    aria-labelledby="basmalah-title basmalah-description" color="#F1F1EB" width="515" height="193"
    viewBox="0 0 515 193">
    <title id="basmalah-title">Basmalah</title>
    <desc id="basmalah-description">Basmalah sederhana untuk pembuka surah Al-Qur&apos;an</desc>
    <defs>
        <g>
            <g id="glyph-0-0">
                <path
                    d="M 12.601562 -0.433594 C 13.703125 -3.503906 14.519531 -5.230469 15.046875 -5.617188 C 15.671875 -6.046875 17.519531 -5.710938 20.59375 -4.609375 C 23.808594 -3.457031 26.808594 -1.824219 29.59375 0.289062 C 30.457031 0.910156 30.695312 1.777344 30.3125 2.878906 C 29.976562 3.984375 29.6875 4.847656 29.449219 5.472656 C 29.207031 6.097656 29.0625 6.457031 29.015625 6.550781 C 28.632812 7.414062 28.175781 7.824219 27.648438 7.777344 C 22.511719 7.105469 17.953125 7.320312 13.96875 8.425781 C 11.566406 9.046875 9.816406 9.960938 8.710938 11.160156 C 8.664062 11.304688 8.6875 11.773438 8.785156 12.5625 C 8.878906 13.355469 9.046875 14.472656 9.289062 15.910156 L 10.871094 26.136719 C 11.207031 28.105469 11.484375 29.820312 11.699219 31.285156 C 11.914062 32.746094 12.046875 33.9375 12.097656 34.847656 C 12.382812 38.832031 12.121094 42.121094 11.304688 44.710938 C 11.0625 45.289062 10.726562 45.550781 10.296875 45.503906 C 9.671875 45.457031 9.433594 44.808594 9.574219 43.558594 C 9.863281 40.488281 8.902344 33.3125 6.695312 22.03125 C 5.976562 17.855469 6.046875 14.351562 6.910156 11.519531 C 7.34375 10.128906 7.824219 8.890625 8.351562 7.8125 C 8.878906 6.730469 9.457031 5.832031 10.078125 5.113281 C 10.753906 4.390625 11.507812 3.742188 12.347656 3.167969 C 13.1875 2.59375 14.089844 2.0625 15.046875 1.585938 C 15 1.535156 14.902344 1.488281 14.761719 1.441406 C 14.617188 1.390625 14.425781 1.34375 14.183594 1.296875 C 13.992188 1.199219 13.789062 1.117188 13.570312 1.042969 C 13.355469 0.972656 13.128906 0.886719 12.886719 0.792969 C 12.457031 0.601562 12.359375 0.191406 12.601562 -0.433594 Z M 12.601562 -0.433594 " />
            </g>
            <g id="glyph-0-1">
                <path
                    d="M 15.480469 -13.535156 C 17.160156 -13.535156 19.105469 -12.023438 21.3125 -9 C 22.464844 -7.464844 23.472656 -6.625 24.335938 -6.480469 C 27.023438 -6 27.527344 -4.128906 25.847656 -0.863281 C 25.558594 -0.289062 25.054688 0 24.335938 0 C 21.9375 0 19.800781 -1.535156 17.929688 -4.609375 C 16.390625 -7.199219 14.015625 -8.230469 10.800781 -7.703125 C 9.214844 -7.464844 7.691406 -7.03125 6.226562 -6.40625 C 4.765625 -5.785156 3.40625 -4.96875 2.160156 -3.960938 C 0.960938 -3.046875 0 -2.953125 -0.71875 -3.671875 C -1.488281 -4.441406 -1.703125 -5.039062 -1.367188 -5.472656 C -1.03125 -5.953125 0.046875 -6.769531 1.871094 -7.921875 C 7.726562 -11.664062 12.265625 -13.535156 15.480469 -13.535156 Z M 17.136719 16.777344 C 17.230469 16.632812 17.425781 16.585938 17.710938 16.632812 C 18.527344 16.96875 19.320312 17.351562 20.089844 17.785156 C 20.855469 18.214844 21.574219 18.71875 22.246094 19.296875 C 22.441406 19.488281 22.464844 19.679688 22.320312 19.871094 L 19.222656 24.839844 C 19.128906 24.984375 18.9375 24.9375 18.648438 24.695312 C 18.503906 24.550781 18.132812 24.300781 17.53125 23.941406 C 16.933594 23.578125 16.078125 23.089844 14.976562 22.464844 L 12.527344 26.28125 C 12.382812 26.472656 12.167969 26.449219 11.878906 26.207031 C 11.6875 26.0625 11.21875 25.753906 10.476562 25.273438 C 9.730469 24.792969 8.6875 24.144531 7.34375 23.328125 C 7.152344 23.230469 7.128906 23.113281 7.273438 22.96875 L 10.441406 18.214844 C 10.535156 18.070312 10.703125 18.023438 10.945312 18.070312 C 11.664062 18.3125 12.347656 18.625 12.996094 19.007812 C 13.644531 19.390625 14.257812 19.800781 14.832031 20.230469 Z M 17.136719 16.777344 " />
            </g>
            <g id="glyph-0-2">
                <path
                    d="M 0.433594 -15.695312 C 0.816406 -17.230469 1.777344 -18.742188 3.3125 -20.230469 C 4.945312 -21.769531 6.648438 -22.535156 8.425781 -22.535156 C 10.246094 -22.535156 14.425781 -21.167969 20.953125 -18.433594 C 22.152344 -17.953125 23.519531 -17.507812 25.054688 -17.101562 C 26.59375 -16.691406 28.273438 -16.296875 30.097656 -15.910156 C 33.792969 -15.191406 37.585938 -14.976562 41.472656 -15.265625 C 42.527344 -15.3125 42.839844 -14.878906 42.40625 -13.96875 L 40.390625 -9.574219 C 40.105469 -9 39.601562 -8.785156 38.878906 -8.929688 C 33.457031 -9.839844 28.320312 -9.574219 23.472656 -8.136719 C 17.519531 -6.167969 12.769531 -4.320312 9.214844 -2.59375 C 5.761719 -0.863281 2.6875 0 0 0 C -0.289062 0 -0.527344 -0.238281 -0.71875 -0.71875 C -1.246094 -2.160156 -1.367188 -3.480469 -1.078125 -4.679688 C -0.792969 -5.785156 -0.433594 -6.382812 0 -6.480469 C 3.457031 -6.71875 6.769531 -7.285156 9.9375 -8.171875 C 13.105469 -9.058594 16.152344 -10.246094 19.078125 -11.734375 C 12.742188 -15.382812 6.910156 -16.367188 1.585938 -14.6875 C 1.199219 -14.542969 0.886719 -14.59375 0.648438 -14.832031 C 0.457031 -15.070312 0.382812 -15.359375 0.433594 -15.695312 Z M 0.433594 -15.695312 " />
            </g>
            <g id="glyph-0-3">
                <path
                    d="M 20.304688 -15.191406 C 21.121094 -14.183594 21.695312 -12.71875 22.03125 -10.800781 C 22.367188 -8.929688 22.464844 -6.984375 22.320312 -4.96875 C 22.175781 -3.097656 21.457031 -0.601562 20.160156 2.519531 C 18.382812 6.839844 15.625 10.128906 11.878906 12.382812 C 10.007812 13.535156 7.96875 14.183594 5.761719 14.328125 C 3.503906 14.472656 -0.265625 12.863281 -5.542969 9.503906 C -5.878906 9.265625 -6.023438 8.976562 -5.976562 8.640625 C -5.929688 8.304688 -5.640625 8.207031 -5.113281 8.351562 C 1.65625 10.65625 7.894531 9.40625 13.609375 4.609375 C 16.390625 2.257812 18.550781 -0.527344 20.089844 -3.742188 C 20.328125 -4.222656 20.375 -4.824219 20.230469 -5.542969 C 20.089844 -6.359375 19.222656 -7.511719 17.640625 -9 C 17.449219 -9.191406 17.425781 -9.503906 17.566406 -9.9375 L 19.296875 -15.046875 C 19.390625 -15.335938 19.535156 -15.480469 19.726562 -15.480469 C 19.96875 -15.480469 20.160156 -15.382812 20.304688 -15.191406 Z M 20.304688 -15.191406 " />
            </g>
            <g id="glyph-0-4">
                <path
                    d="M 4.96875 -55.65625 C 5.207031 -55.65625 5.398438 -55.464844 5.542969 -55.078125 C 5.6875 -54.648438 6.214844 -53.902344 7.128906 -52.847656 C 7.609375 -52.320312 8.0625 -51.828125 8.496094 -51.371094 C 8.929688 -50.914062 9.359375 -50.519531 9.792969 -50.183594 C 10.320312 -49.753906 10.296875 -49.078125 9.71875 -48.167969 L 7.847656 -45.359375 C 7.945312 -44.207031 8.171875 -42.480469 8.53125 -40.175781 C 8.890625 -37.871094 9.3125 -34.945312 9.792969 -31.390625 C 10.320312 -27.886719 10.679688 -24.910156 10.871094 -22.464844 C 11.0625 -20.015625 11.113281 -18.097656 11.015625 -16.703125 C 10.632812 -10.945312 8.449219 -7.488281 4.464844 -6.335938 C 3.886719 -6.144531 3.347656 -6.023438 2.84375 -5.976562 C 2.339844 -5.929688 1.871094 -5.929688 1.441406 -5.976562 C 0.0976562 -6.121094 -0.886719 -7.34375 -1.511719 -9.648438 C -2.136719 -11.953125 -2.230469 -13.753906 -1.800781 -15.046875 C -1.703125 -15.335938 -1.558594 -15.480469 -1.367188 -15.480469 C -1.128906 -15.480469 -0.9375 -15.382812 -0.792969 -15.191406 C 0.359375 -14.230469 1.871094 -13.777344 3.742188 -13.824219 C 5.710938 -13.921875 7.273438 -14.398438 8.425781 -15.265625 C 8.566406 -16.894531 7.679688 -23.566406 5.761719 -35.28125 L 4.320312 -43.992188 C 4.078125 -45.574219 3.792969 -46.992188 3.457031 -48.238281 C 3.265625 -48.910156 3.132812 -49.476562 3.058594 -49.933594 C 2.988281 -50.386719 2.929688 -50.710938 2.878906 -50.902344 C 2.785156 -51.433594 2.832031 -51.863281 3.023438 -52.199219 L 4.464844 -55.296875 C 4.609375 -55.535156 4.777344 -55.65625 4.96875 -55.65625 Z M 4.96875 -55.65625 " />
            </g>
            <g id="glyph-0-5">
                <path
                    d="M 6.40625 -48.238281 C 7.414062 -50.59375 8.0625 -50.640625 8.351562 -48.382812 L 10.007812 -30.742188 C 11.832031 -14.855469 11.617188 -4.777344 9.359375 -0.503906 C 9.023438 0.0703125 8.761719 0.214844 8.566406 -0.0703125 C 8.375 -0.3125 8.28125 -0.71875 8.28125 -1.296875 C 8.375 -5.328125 8.089844 -9.863281 7.414062 -14.902344 C 7.414062 -15.097656 6.910156 -19.65625 5.902344 -28.585938 L 4.320312 -41.617188 C 4.222656 -42.574219 4.320312 -43.390625 4.609375 -44.0625 Z M 6.40625 -48.238281 " />
            </g>
            <g id="glyph-0-6"></g>
            <g id="glyph-0-7">
                <path
                    d="M 37.945312 -10.65625 C 38.230469 -11.328125 38.617188 -11.425781 39.097656 -10.945312 C 39.335938 -10.703125 39.648438 -10.320312 40.03125 -9.792969 C 40.414062 -9.265625 40.847656 -8.617188 41.328125 -7.847656 C 41.902344 -6.9375 42.886719 -6.480469 44.28125 -6.480469 C 45.289062 -6.480469 45.863281 -5.976562 46.007812 -4.96875 C 46.152344 -4.054688 45.984375 -2.976562 45.503906 -1.726562 C 45.070312 -0.574219 44.664062 0 44.28125 0 L 42.046875 0 C 41.761719 5.617188 40.054688 10.800781 36.9375 15.550781 C 33.335938 21.023438 27.238281 23.902344 18.648438 24.191406 C 14.328125 24.335938 10.847656 23.136719 8.207031 20.59375 C 5.617188 18.046875 4.414062 14.953125 4.609375 11.304688 C 4.703125 9.480469 5.21875 7.332031 6.15625 4.859375 C 7.09375 2.386719 8.398438 -0.40625 10.078125 -3.527344 C 10.222656 -3.816406 10.414062 -3.960938 10.65625 -3.960938 C 10.992188 -3.960938 11.230469 -3.863281 11.375 -3.671875 C 11.566406 -3.433594 11.542969 -3.121094 11.304688 -2.734375 C 8.953125 1.824219 7.847656 4.96875 7.992188 6.695312 C 8.328125 13.078125 12.167969 16.320312 19.511719 16.414062 C 27.480469 16.464844 33.503906 14.28125 37.585938 9.863281 C 38.398438 4.054688 37.945312 -0.769531 36.214844 -4.609375 C 35.929688 -5.28125 35.808594 -5.6875 35.855469 -5.832031 Z M 22.753906 -26.710938 C 22.847656 -26.855469 23.039062 -26.902344 23.328125 -26.855469 C 25.246094 -26.183594 26.953125 -25.175781 28.441406 -23.832031 C 28.632812 -23.640625 28.65625 -23.449219 28.511719 -23.257812 L 25.128906 -17.785156 C 24.984375 -17.542969 24.742188 -17.566406 24.40625 -17.855469 C 24.214844 -18 23.710938 -18.335938 22.894531 -18.863281 C 22.078125 -19.390625 20.902344 -20.113281 19.367188 -21.023438 C 19.128906 -21.167969 19.078125 -21.3125 19.222656 -21.457031 Z M 22.753906 -26.710938 " />
            </g>
            <g id="glyph-0-8">
                <path
                    d="M 7.703125 -12.601562 C 8.519531 -14.230469 9.503906 -15.480469 10.65625 -16.34375 C 10.894531 -16.488281 11.21875 -16.609375 11.628906 -16.703125 C 12.035156 -16.800781 12.550781 -16.871094 13.175781 -16.921875 C 15.816406 -17.257812 17.976562 -16.367188 19.65625 -14.257812 C 21.671875 -11.710938 22.511719 -9.648438 22.175781 -8.0625 C 21.742188 -6.144531 21.046875 -4.535156 20.089844 -3.238281 C 19.894531 -2.953125 19.703125 -2.808594 19.511719 -2.808594 C 15 -3.097656 10.753906 -4.535156 6.769531 -7.128906 C 4.609375 -2.375 2.351562 0 0 0 C -0.671875 0 -1.152344 -0.527344 -1.441406 -1.585938 C -2.351562 -4.847656 -1.871094 -6.480469 0 -6.480469 C 2.542969 -6.480469 4.511719 -7.246094 5.902344 -8.785156 C 6.097656 -9.214844 6.335938 -9.757812 6.625 -10.402344 C 6.910156 -11.050781 7.273438 -11.785156 7.703125 -12.601562 Z M 15.839844 -12.097656 C 13.054688 -13.824219 11.089844 -13.824219 9.9375 -12.097656 C 13.152344 -10.273438 16.128906 -9.238281 18.863281 -9 C 18.433594 -10.054688 17.425781 -11.089844 15.839844 -12.097656 Z M 15.839844 -12.097656 " />
            </g>
            <g id="glyph-0-9">
                <path
                    d="M 4.175781 -29.953125 C 5.808594 -29.953125 7.367188 -29.519531 8.855469 -28.65625 C 9.671875 -28.222656 10.488281 -27.757812 11.304688 -27.253906 C 12.121094 -26.746094 12.960938 -26.183594 13.824219 -25.558594 C 18.71875 -22.199219 24.769531 -19.871094 31.96875 -18.574219 C 32.398438 -18.527344 32.566406 -18.3125 32.472656 -17.929688 C 32.28125 -16.824219 31.632812 -15.40625 30.527344 -13.679688 C 30.289062 -13.296875 29.953125 -13.175781 29.519531 -13.320312 C 23.953125 -15.097656 19.34375 -16.152344 15.695312 -16.488281 C 11.808594 -16.921875 8.230469 -16.777344 4.96875 -16.054688 C 1.273438 -15.238281 -1.65625 -15.046875 -3.816406 -15.480469 C -4.777344 -15.671875 -5.0625 -15.9375 -4.679688 -16.273438 C -1.800781 -18.574219 3.433594 -19.800781 11.015625 -19.945312 C 6.601562 -23.785156 1.609375 -25.128906 -3.960938 -23.976562 C -4.199219 -23.929688 -4.367188 -24.046875 -4.464844 -24.335938 C -4.558594 -24.625 -4.488281 -24.886719 -4.246094 -25.128906 C -1.753906 -28.34375 1.054688 -29.953125 4.175781 -29.953125 Z M 4.175781 -29.953125 " />
            </g>
            <g id="glyph-0-10">
                <path
                    d="M 25.992188 -7.632812 C 26.664062 -7.632812 27.144531 -7.007812 27.433594 -5.761719 C 27.71875 -4.511719 27.71875 -3.265625 27.433594 -2.015625 C 27.144531 -0.769531 26.6875 -0.121094 26.0625 -0.0703125 C 21.9375 0.359375 19.390625 -1.921875 18.433594 -6.910156 C 18.382812 -7.054688 18.359375 -7.199219 18.359375 -7.34375 C 16.777344 -4.992188 15.574219 -3.742188 14.761719 -3.601562 C 10.535156 -2.832031 7.320312 -3.214844 5.113281 -4.753906 C 4.296875 -5.328125 4.105469 -6.214844 4.535156 -7.414062 C 5.398438 -10.199219 7.03125 -12.574219 9.433594 -14.542969 C 11.878906 -16.558594 14.449219 -17.878906 17.136719 -18.503906 L 16.992188 -22.03125 C 16.992188 -22.414062 17.398438 -23.472656 18.214844 -25.199219 C 18.648438 -26.015625 18.984375 -26.675781 19.222656 -27.179688 C 19.464844 -27.683594 19.609375 -27.984375 19.65625 -28.078125 C 20.183594 -28.945312 20.496094 -28.632812 20.59375 -27.144531 C 20.59375 -26.855469 20.605469 -26.28125 20.628906 -25.414062 C 20.652344 -24.550781 20.6875 -23.375 20.734375 -21.886719 C 20.785156 -20.398438 20.84375 -18.972656 20.914062 -17.605469 C 20.988281 -16.234375 21.097656 -14.878906 21.238281 -13.535156 C 21.527344 -10.894531 22.296875 -9.144531 23.542969 -8.28125 C 24.121094 -7.847656 24.9375 -7.632812 25.992188 -7.632812 Z M 17.28125 -15.046875 C 16.800781 -14.953125 16.222656 -14.773438 15.550781 -14.507812 C 14.878906 -14.242188 14.113281 -13.894531 13.246094 -13.464844 C 11.519531 -12.601562 10.414062 -11.710938 9.9375 -10.800781 C 10.703125 -10.222656 12.382812 -9.984375 14.976562 -10.078125 C 16.273438 -10.175781 17.183594 -10.511719 17.710938 -11.089844 C 17.664062 -11.328125 17.605469 -11.785156 17.53125 -12.457031 C 17.460938 -13.128906 17.375 -13.992188 17.28125 -15.046875 Z M 17.28125 -15.046875 " />
            </g>
            <g id="glyph-0-11">
                <path
                    d="M 17.566406 -8.28125 C 18.433594 -8.136719 19.007812 -7.390625 19.296875 -6.046875 C 19.585938 -4.703125 19.585938 -3.382812 19.296875 -2.089844 C 19.007812 -0.742188 18.648438 -0.0703125 18.214844 -0.0703125 C 16.246094 -0.0234375 14.542969 -0.625 13.105469 -1.871094 C 11.808594 -3.023438 10.488281 -4.871094 9.144531 -7.414062 C 8.425781 -5.734375 7.753906 -4.378906 7.128906 -3.347656 C 6.503906 -2.316406 5.902344 -1.632812 5.328125 -1.296875 C 4.078125 -0.574219 2.566406 -0.191406 0.792969 -0.144531 C -0.3125 -0.046875 -1.152344 -0.671875 -1.726562 -2.015625 C -2.304688 -3.3125 -2.425781 -4.558594 -2.089844 -5.761719 C -1.703125 -7.007812 -0.769531 -7.632812 0.71875 -7.632812 C 4.175781 -7.632812 6.433594 -8.832031 7.488281 -11.230469 C 7.488281 -11.230469 7.453125 -11.496094 7.378906 -12.023438 C 7.308594 -12.550781 7.175781 -13.34375 6.984375 -14.398438 L 5.398438 -22.535156 C 5.0625 -24.214844 4.800781 -25.621094 4.609375 -26.746094 C 4.414062 -27.875 4.273438 -28.753906 4.175781 -29.375 C 4.03125 -30.625 4.128906 -31.488281 4.464844 -31.96875 L 6.550781 -35.28125 C 7.03125 -35.953125 7.414062 -35.664062 7.703125 -34.414062 C 7.800781 -34.128906 7.921875 -33.539062 8.0625 -32.652344 C 8.207031 -31.765625 8.375 -30.601562 8.566406 -29.160156 C 10.105469 -19.367188 11.449219 -13.511719 12.601562 -11.59375 C 13.753906 -9.671875 15.40625 -8.566406 17.566406 -8.28125 Z M 17.566406 -8.28125 " />
            </g>
            <g id="glyph-0-12">
                <path
                    d="M 2.089844 -34.34375 L 5.761719 -17.425781 C 6 -16.175781 6.203125 -15.121094 6.371094 -14.257812 C 6.539062 -13.390625 6.648438 -12.695312 6.695312 -12.167969 C 6.742188 -11.6875 6.769531 -11.160156 6.769531 -10.585938 C 6.769531 -10.007812 6.71875 -9.382812 6.625 -8.710938 C 6.046875 -2.953125 4.367188 -0.0703125 1.585938 -0.0703125 C 0.0976562 -0.0703125 -1.117188 -1.078125 -2.050781 -3.097656 C -2.988281 -5.113281 -3.070312 -6.550781 -2.304688 -7.414062 C -1.488281 -8.328125 -0.550781 -8.640625 0.503906 -8.351562 C 1.65625 -8.0625 2.640625 -8.113281 3.457031 -8.496094 C 3.40625 -9.070312 3.226562 -10.128906 2.914062 -11.664062 C 2.605469 -13.199219 2.160156 -15.191406 1.585938 -17.640625 C 0.433594 -22.441406 -0.433594 -26.519531 -1.007812 -29.878906 C -1.199219 -31.175781 -0.550781 -32.902344 0.9375 -35.0625 C 1.414062 -35.832031 1.800781 -35.59375 2.089844 -34.34375 Z M 2.089844 -34.34375 " />
            </g>
            <g id="glyph-0-13">
                <path
                    d="M 31.609375 -13.535156 C 33.289062 -13.535156 35.230469 -12.023438 37.441406 -9 C 38.59375 -7.464844 39.601562 -6.625 40.464844 -6.480469 C 43.152344 -6 43.65625 -4.128906 41.976562 -0.863281 C 41.6875 -0.289062 41.183594 0 40.464844 0 C 38.0625 0 35.929688 -1.535156 34.054688 -4.609375 C 32.519531 -7.199219 30.144531 -8.230469 26.929688 -7.703125 C 25.34375 -7.464844 23.820312 -7.03125 22.355469 -6.40625 C 20.890625 -5.785156 19.535156 -4.96875 18.289062 -3.960938 C 17.089844 -3.046875 16.128906 -2.953125 15.40625 -3.671875 C 14.640625 -4.441406 14.425781 -5.039062 14.761719 -5.472656 C 15.097656 -5.953125 16.175781 -6.769531 18 -7.921875 C 23.855469 -11.664062 28.390625 -13.535156 31.609375 -13.535156 Z M 12.601562 -0.433594 C 13.703125 -3.503906 14.519531 -5.230469 15.046875 -5.617188 C 15.671875 -6.046875 17.519531 -5.710938 20.59375 -4.609375 C 23.808594 -3.457031 26.808594 -1.824219 29.59375 0.289062 C 30.457031 0.910156 30.695312 1.777344 30.3125 2.878906 C 29.976562 3.984375 29.6875 4.847656 29.449219 5.472656 C 29.207031 6.097656 29.0625 6.457031 29.015625 6.550781 C 28.632812 7.414062 28.175781 7.824219 27.648438 7.777344 C 22.511719 7.105469 17.953125 7.320312 13.96875 8.425781 C 11.566406 9.046875 9.816406 9.960938 8.710938 11.160156 C 8.664062 11.304688 8.6875 11.773438 8.785156 12.5625 C 8.878906 13.355469 9.046875 14.472656 9.289062 15.910156 L 10.871094 26.136719 C 11.207031 28.105469 11.484375 29.820312 11.699219 31.285156 C 11.914062 32.746094 12.046875 33.9375 12.097656 34.847656 C 12.382812 38.832031 12.121094 42.121094 11.304688 44.710938 C 11.0625 45.289062 10.726562 45.550781 10.296875 45.503906 C 9.671875 45.457031 9.433594 44.808594 9.574219 43.558594 C 9.863281 40.488281 8.902344 33.3125 6.695312 22.03125 C 5.976562 17.855469 6.046875 14.351562 6.910156 11.519531 C 7.34375 10.128906 7.824219 8.890625 8.351562 7.8125 C 8.878906 6.730469 9.457031 5.832031 10.078125 5.113281 C 10.753906 4.390625 11.507812 3.742188 12.347656 3.167969 C 13.1875 2.59375 14.089844 2.0625 15.046875 1.585938 C 15 1.535156 14.902344 1.488281 14.761719 1.441406 C 14.617188 1.390625 14.425781 1.34375 14.183594 1.296875 C 13.992188 1.199219 13.789062 1.117188 13.570312 1.042969 C 13.355469 0.972656 13.128906 0.886719 12.886719 0.792969 C 12.457031 0.601562 12.359375 0.191406 12.601562 -0.433594 Z M 12.601562 -0.433594 " />
            </g>
            <g id="glyph-0-14">
                <path
                    d="M 21.097656 -12.816406 C 21.816406 -11.710938 21.960938 -10.222656 21.527344 -8.351562 C 21.335938 -7.488281 21.167969 -7.246094 21.023438 -7.632812 C 20.832031 -8.160156 20.664062 -8.207031 20.519531 -7.777344 C 18.839844 -3.984375 17.398438 -1.558594 16.199219 -0.503906 C 15.671875 0.0234375 15.070312 0.335938 14.398438 0.433594 C 11.664062 0.71875 9.097656 -0.550781 6.695312 -3.382812 C 4.726562 -1.222656 2.496094 -0.0976562 0 0 C -0.71875 0 -1.222656 -1.367188 -1.511719 -4.105469 C -1.65625 -5.734375 -1.152344 -6.527344 0 -6.480469 C 1.246094 -6.382812 2.363281 -6.394531 3.347656 -6.515625 C 4.332031 -6.636719 5.160156 -6.839844 5.832031 -7.128906 C 7.753906 -8.039062 9.144531 -9.71875 10.007812 -12.167969 C 10.246094 -12.9375 10.585938 -13.175781 11.015625 -12.886719 C 11.496094 -12.601562 11.59375 -12.144531 11.304688 -11.519531 C 10.585938 -9.742188 10.535156 -8.59375 11.160156 -8.0625 C 13.558594 -6.191406 15.625 -5.566406 17.351562 -6.191406 C 17.449219 -6.238281 17.59375 -6.40625 17.785156 -6.695312 C 17.929688 -6.886719 18.71875 -8.878906 20.160156 -12.671875 C 20.207031 -12.816406 20.351562 -12.9375 20.59375 -13.03125 C 20.785156 -13.078125 20.953125 -13.007812 21.097656 -12.816406 Z M 21.097656 -12.816406 " />
            </g>
            <g id="glyph-0-15">
                <path
                    d="M 6.335938 -30.960938 C 10.609375 -21.214844 12.238281 -12.550781 11.230469 -4.96875 C 11.183594 -4.441406 11.074219 -3.875 10.90625 -3.277344 C 10.738281 -2.675781 10.535156 -2.089844 10.296875 -1.511719 C 9.816406 -0.359375 9.144531 0.214844 8.28125 0.214844 C 5.832031 0.214844 3.070312 -1.894531 0 -6.121094 C -0.433594 -6.601562 -0.71875 -7.414062 -0.863281 -8.566406 C -0.910156 -9.097656 -0.949219 -9.613281 -0.972656 -10.117188 C -0.996094 -10.621094 -0.984375 -11.113281 -0.9375 -11.59375 C -0.839844 -12.550781 -0.601562 -13.03125 -0.214844 -13.03125 C -0.0234375 -13.03125 0.191406 -12.792969 0.433594 -12.3125 C 1.921875 -8.953125 4.703125 -6.625 8.785156 -5.328125 C 9.070312 -5.28125 9.214844 -5.519531 9.214844 -6.046875 C 9.214844 -10.65625 7.535156 -16.296875 4.175781 -22.96875 C 4.03125 -23.304688 4.054688 -24.265625 4.246094 -25.847656 C 4.34375 -26.664062 4.5 -27.515625 4.714844 -28.402344 C 4.933594 -29.292969 5.160156 -30.167969 5.398438 -31.03125 C 5.449219 -31.273438 5.59375 -31.390625 5.832031 -31.390625 C 6.023438 -31.390625 6.191406 -31.246094 6.335938 -30.960938 Z M 9.289062 9.433594 C 9.382812 9.289062 9.574219 9.238281 9.863281 9.289062 C 11.785156 9.960938 13.488281 10.96875 14.976562 12.3125 C 15.167969 12.503906 15.191406 12.695312 15.046875 12.886719 L 11.664062 18.359375 C 11.519531 18.601562 11.28125 18.574219 10.945312 18.289062 C 10.753906 18.144531 10.246094 17.808594 9.433594 17.28125 C 8.617188 16.753906 7.441406 16.03125 5.902344 15.121094 C 5.664062 14.976562 5.617188 14.832031 5.761719 14.6875 Z M 9.289062 9.433594 " />
            </g>
        </g>
    </defs>
    <g fill="currentColor">
        <use xlink:href="#glyph-0-0" x="8" y="138.6875" />
        <use xlink:href="#glyph-0-1" x="24.0625" y="138.6875" />
        <use xlink:href="#glyph-0-2" x="48.328125" y="138.6875" />
        <use xlink:href="#glyph-0-3" x="95.484375" y="138.6875" />
        <use xlink:href="#glyph-0-4" x="116.515625" y="138.6875" />
        <use xlink:href="#glyph-0-5" x="132.0625" y="138.6875" />
        <use xlink:href="#glyph-0-6" x="147.6875" y="138.6875" />
        <use xlink:href="#glyph-0-7" x="168.71875" y="138.6875" />
        <use xlink:href="#glyph-0-8" x="213" y="138.6875" />
        <use xlink:href="#glyph-0-9" x="228.546875" y="138.6875" />
        <use xlink:href="#glyph-0-3" x="265.5625" y="138.6875" />
        <use xlink:href="#glyph-0-4" x="286.59375" y="138.6875" />
        <use xlink:href="#glyph-0-5" x="302.140625" y="138.6875" />
        <use xlink:href="#glyph-0-6" x="317.765625" y="138.6875" />
        <use xlink:href="#glyph-0-10" x="338.796875" y="138.6875" />
        <use xlink:href="#glyph-0-11" x="364.140625" y="138.6875" />
        <use xlink:href="#glyph-0-12" x="380.703125" y="138.6875" />
        <use xlink:href="#glyph-0-5" x="391.859375" y="138.6875" />
        <use xlink:href="#glyph-0-6" x="407.484375" y="138.6875" />
        <use xlink:href="#glyph-0-13" x="428.515625" y="138.6875" />
        <use xlink:href="#glyph-0-14" x="469.203125" y="138.6875" />
        <use xlink:href="#glyph-0-15" x="490.15625" y="138.6875" />
    </g>
</svg>
